<svg xmlns="http://www.w3.org/2000/svg" xmlns:xlink="http://www.w3.org/1999/xlink" width="1920" zoomAndPan="magnify" viewBox="0 0 1440 809.999993" height="1080" preserveAspectRatio="xMidYMid meet" version="1.0"><defs><clipPath id="df82fd20a6"><path d="M 1064 390 L 1177.75 390 L 1177.75 810 L 1064 810 Z M 1064 390 " clip-rule="nonzero"/></clipPath><clipPath id="b95bb5a9ab"><path d="M 281.5 390 L 539 390 L 539 810 L 281.5 810 Z M 281.5 390 " clip-rule="nonzero"/></clipPath></defs><path fill="#252745" d="M 453.617188 65.570312 L 453.617188 305.222656 L 460.03125 305.222656 L 460.03125 65.570312 L 453.617188 65.570312 " fill-opacity="1" fill-rule="nonzero"/><path fill="#15151c" d="M 793.960938 282.449219 L 708.195312 282.449219 C 711.480469 285.144531 715.171875 288.019531 719.1875 290.933594 L 792.746094 290.933594 C 793.160156 288.066406 793.5625 285.238281 793.960938 282.449219 " fill-opacity="1" fill-rule="nonzero"/><path fill="#15151c" d="M 479.609375 88.089844 L 695.78125 88.089844 L 695.78125 102.898438 L 479.609375 102.898438 Z M 700.957031 88.089844 L 812.273438 88.089844 L 812.273438 102.898438 L 700.957031 102.898438 Z M 496.878906 282.453125 L 479.609375 282.453125 L 479.609375 102.96875 L 695.78125 102.96875 L 695.78125 271.566406 C 697.21875 272.921875 698.957031 274.511719 700.957031 276.289062 L 700.957031 102.96875 L 812.273438 102.96875 L 812.273438 213.878906 C 814.988281 209.085938 817.96875 204.828125 821.125 201.476562 L 821.125 79.863281 L 471.40625 79.863281 L 471.40625 290.933594 L 658.964844 290.933594 C 658.617188 288.082031 658.414062 285.246094 658.371094 282.453125 L 496.878906 282.453125 " fill-opacity="1" fill-rule="nonzero"/><path fill="#252745" d="M 608.394531 305.226562 L 601.382812 305.226562 L 592.890625 345.027344 L 599.902344 345.027344 L 608.394531 305.226562 " fill-opacity="1" fill-rule="nonzero"/><path fill="#252745" d="M 597.632812 358.636719 C 597.652344 357.640625 597.730469 356.585938 597.9375 355.375 C 598.671875 351.113281 599.902344 345.027344 599.902344 345.027344 L 592.890625 345.027344 C 592.890625 345.027344 592.105469 349.03125 591.484375 352.578125 C 590.40625 358.746094 588.953125 365.71875 597.746094 365.71875 L 599.085938 365.71875 L 596.394531 358.636719 L 597.632812 358.636719 " fill-opacity="1" fill-rule="nonzero"/><path fill="#252745" d="M 639.597656 362.175781 C 639.597656 360.222656 638.253906 358.636719 636.59375 358.636719 L 596.394531 358.636719 L 599.085938 365.71875 L 636.59375 365.71875 C 638.253906 365.71875 639.597656 364.132812 639.597656 362.175781 " fill-opacity="1" fill-rule="nonzero"/><path fill="#424881" d="M 680.929688 358.636719 L 636.59375 358.636719 C 638.253906 358.636719 639.597656 360.222656 639.597656 362.175781 C 639.597656 364.132812 638.253906 365.71875 636.59375 365.71875 L 712.230469 365.71875 C 708.820312 363.496094 705.246094 361.125 701.613281 358.636719 L 680.929688 358.636719 " fill-opacity="1" fill-rule="nonzero"/><path fill="#1b1c28" d="M 646.707031 152.621094 L 590.804688 152.621094 L 590.804688 149.929688 L 646.707031 149.929688 Z M 636.039062 162.796875 L 592.644531 162.796875 L 592.644531 160.101562 L 636.039062 160.101562 Z M 616.429688 238.503906 L 606.5 238.503906 L 606.5 235.808594 L 616.429688 235.808594 Z M 602.824219 238.503906 L 593.261719 238.503906 L 593.261719 235.808594 L 602.824219 235.808594 Z M 597.058594 248.371094 L 564.199219 248.371094 L 564.199219 245.675781 L 597.058594 245.675781 Z M 597.058594 257.199219 L 582.589844 257.199219 L 582.589844 254.5 L 597.058594 254.5 Z M 578.425781 257.199219 L 564.199219 257.199219 L 564.199219 254.5 L 578.425781 254.5 Z M 566.792969 271.785156 L 560.171875 271.785156 L 560.171875 269.085938 L 566.792969 269.085938 Z M 556.863281 224.582031 L 537.617188 224.582031 L 537.617188 221.886719 L 556.863281 221.886719 Z M 556.863281 271.785156 L 537.617188 271.785156 L 537.617188 269.085938 L 556.863281 269.085938 Z M 537.617188 260.261719 L 550.609375 260.261719 L 550.609375 262.960938 L 537.617188 262.960938 Z M 550.609375 213.058594 L 550.609375 215.757812 L 537.617188 215.757812 L 537.617188 213.058594 Z M 537.371094 205.582031 L 571.695312 205.582031 L 571.695312 208.277344 L 537.371094 208.277344 Z M 550.363281 195.410156 L 550.363281 198.101562 L 537.371094 198.101562 L 537.371094 195.410156 Z M 524.234375 180.453125 L 561.75 180.453125 L 561.75 183.152344 L 524.234375 183.152344 Z M 520.929688 127.484375 L 501.679688 127.484375 L 501.679688 124.792969 L 520.929688 124.792969 Z M 520.929688 171.628906 L 501.679688 171.628906 L 501.679688 168.929688 L 520.929688 168.929688 Z M 501.679688 115.96875 L 514.675781 115.96875 L 514.675781 118.664062 L 501.679688 118.664062 Z M 501.679688 107.136719 L 536.007812 107.136719 L 536.007812 109.835938 L 501.679688 109.835938 Z M 540.910156 107.136719 L 549.738281 107.136719 L 549.738281 109.835938 L 540.910156 109.835938 Z M 524.234375 127.484375 L 524.234375 124.792969 L 530.859375 124.792969 L 530.859375 127.484375 Z M 530.859375 168.929688 L 530.859375 171.628906 L 524.234375 171.628906 L 524.234375 168.929688 Z M 562.855469 136.3125 L 524.234375 136.3125 L 524.234375 133.621094 L 562.855469 133.621094 Z M 566.53125 133.621094 L 576.460938 133.621094 L 576.460938 136.3125 L 566.53125 136.3125 Z M 574.988281 143.792969 L 574.988281 141.101562 L 584.917969 141.101562 L 584.917969 143.792969 Z M 584.917969 149.929688 L 584.917969 152.621094 L 574.988281 152.621094 L 574.988281 149.929688 Z M 589.335938 160.101562 L 589.335938 162.796875 L 532.695312 162.796875 L 532.695312 160.101562 Z M 561.75 143.792969 L 561.75 141.101562 L 571.3125 141.101562 L 571.3125 143.792969 Z M 532.695312 143.792969 L 532.695312 141.101562 L 557.339844 141.101562 L 557.339844 143.792969 Z M 571.3125 149.929688 L 571.3125 152.621094 L 532.695312 152.621094 L 532.695312 149.929688 Z M 560.171875 224.582031 L 560.171875 221.886719 L 566.792969 221.886719 L 566.792969 224.582031 Z M 564.207031 235.808594 L 588.84375 235.808594 L 588.84375 238.503906 L 564.207031 238.503906 Z M 610.300781 141.101562 L 610.300781 143.792969 L 590.804688 143.792969 L 590.804688 141.101562 Z M 582.347656 133.621094 L 638.25 133.621094 L 638.25 136.3125 L 582.347656 136.3125 Z M 496.878906 102.96875 L 496.878906 282.449219 L 658.371094 282.449219 C 658.300781 278.195312 658.597656 274.042969 659.359375 270.113281 C 654.8125 268.582031 638.566406 263.648438 629.320312 257.199219 L 600.488281 257.199219 L 600.488281 254.5 L 626.003906 254.5 C 624.027344 252.566406 622.800781 250.539062 622.777344 248.453125 C 622.777344 248.421875 622.777344 248.394531 622.777344 248.371094 L 600.488281 248.371094 L 600.488281 245.675781 L 622.742188 245.675781 C 622.707031 242.296875 622.730469 240.144531 622.984375 238.503906 L 622.3125 238.503906 L 622.3125 235.808594 L 623.835938 235.808594 C 625.125 233.300781 627.859375 231.09375 633.574219 223.582031 L 638.589844 221.996094 C 618.179688 195.878906 629.433594 193.058594 629.433594 193.058594 L 649.40625 220.691406 C 649.910156 221.117188 650.460938 221.777344 651.128906 222.824219 C 654.710938 228.484375 660.59375 231.972656 662.792969 235.941406 C 664.230469 238.550781 667.667969 245.273438 670.070312 252.179688 L 690.949219 266.824219 C 690.949219 266.824219 692.679688 268.636719 695.78125 271.5625 L 695.78125 102.96875 L 496.878906 102.96875 " fill-opacity="1" fill-rule="nonzero"/><path fill="#1b1c28" d="M 492.363281 109.835938 L 483.535156 109.835938 L 483.535156 107.136719 L 492.363281 107.136719 Z M 492.363281 118.664062 L 483.535156 118.664062 L 483.535156 115.96875 L 492.363281 115.96875 Z M 492.363281 127.484375 L 483.535156 127.484375 L 483.535156 124.792969 L 492.363281 124.792969 Z M 492.363281 136.3125 L 483.535156 136.3125 L 483.535156 133.621094 L 492.363281 133.621094 Z M 492.363281 145.144531 L 483.535156 145.144531 L 483.535156 142.449219 L 492.363281 142.449219 Z M 492.363281 153.96875 L 483.535156 153.96875 L 483.535156 151.273438 L 492.363281 151.273438 Z M 492.363281 162.796875 L 483.535156 162.796875 L 483.535156 160.101562 L 492.363281 160.101562 Z M 492.363281 171.628906 L 483.535156 171.628906 L 483.535156 168.929688 L 492.363281 168.929688 Z M 492.363281 180.453125 L 483.535156 180.453125 L 483.535156 177.753906 L 492.363281 177.753906 Z M 492.363281 189.28125 L 483.535156 189.28125 L 483.535156 186.582031 L 492.363281 186.582031 Z M 492.363281 198.101562 L 483.535156 198.101562 L 483.535156 195.410156 L 492.363281 195.410156 Z M 492.363281 206.929688 L 483.535156 206.929688 L 483.535156 204.238281 L 492.363281 204.238281 Z M 492.363281 215.757812 L 483.535156 215.757812 L 483.535156 213.058594 L 492.363281 213.058594 Z M 492.363281 224.582031 L 483.535156 224.582031 L 483.535156 221.886719 L 492.363281 221.886719 Z M 492.363281 233.414062 L 483.535156 233.414062 L 483.535156 230.710938 L 492.363281 230.710938 Z M 492.363281 242.242188 L 483.535156 242.242188 L 483.535156 239.542969 L 492.363281 239.542969 Z M 492.363281 251.070312 L 483.535156 251.070312 L 483.535156 248.371094 L 492.363281 248.371094 Z M 492.363281 259.890625 L 483.535156 259.890625 L 483.535156 257.199219 L 492.363281 257.199219 Z M 492.363281 268.71875 L 483.535156 268.71875 L 483.535156 266.019531 L 492.363281 266.019531 Z M 492.363281 277.546875 L 483.535156 277.546875 L 483.535156 274.855469 L 492.363281 274.855469 Z M 479.609375 102.96875 L 479.609375 282.449219 L 495.695312 282.449219 L 495.695312 102.96875 L 479.609375 102.96875 " fill-opacity="1" fill-rule="nonzero"/><path fill="#ffffff" d="M 495.695312 102.96875 L 495.695312 282.449219 L 496.878906 282.449219 L 496.878906 102.96875 L 495.695312 102.96875 " fill-opacity="1" fill-rule="nonzero"/><path fill="#3bbec5" d="M 655.582031 90.46875 C 652.808594 90.46875 650.558594 92.71875 650.558594 95.496094 C 650.558594 98.269531 652.808594 100.519531 655.582031 100.519531 C 658.359375 100.519531 660.609375 98.269531 660.609375 95.496094 C 660.609375 92.71875 658.359375 90.46875 655.582031 90.46875 " fill-opacity="1" fill-rule="nonzero"/><path fill="#3bbec5" d="M 668.824219 90.46875 C 666.046875 90.46875 663.796875 92.71875 663.796875 95.496094 C 663.796875 98.269531 666.046875 100.519531 668.824219 100.519531 C 671.597656 100.519531 673.851562 98.269531 673.851562 95.496094 C 673.851562 92.71875 671.597656 90.46875 668.824219 90.46875 " fill-opacity="1" fill-rule="nonzero"/><path fill="#3bbec5" d="M 681.945312 90.46875 C 679.164062 90.46875 676.914062 92.71875 676.914062 95.496094 C 676.914062 98.269531 679.164062 100.519531 681.945312 100.519531 C 684.714844 100.519531 686.96875 98.269531 686.96875 95.496094 C 686.96875 92.71875 684.714844 90.46875 681.945312 90.46875 " fill-opacity="1" fill-rule="nonzero"/><path fill="#ffffff" d="M 483.539062 109.832031 L 492.363281 109.832031 L 492.363281 107.132812 L 483.539062 107.132812 L 483.539062 109.832031 " fill-opacity="1" fill-rule="nonzero"/><path fill="#ffffff" d="M 483.539062 118.660156 L 492.363281 118.660156 L 492.363281 115.964844 L 483.539062 115.964844 L 483.539062 118.660156 " fill-opacity="1" fill-rule="nonzero"/><path fill="#ffffff" d="M 483.539062 127.484375 L 492.363281 127.484375 L 492.363281 124.792969 L 483.539062 124.792969 L 483.539062 127.484375 " fill-opacity="1" fill-rule="nonzero"/><path fill="#ffffff" d="M 483.539062 136.316406 L 492.363281 136.316406 L 492.363281 133.617188 L 483.539062 133.617188 L 483.539062 136.316406 " fill-opacity="1" fill-rule="nonzero"/><path fill="#ffffff" d="M 483.539062 145.144531 L 492.363281 145.144531 L 492.363281 142.445312 L 483.539062 142.445312 L 483.539062 145.144531 " fill-opacity="1" fill-rule="nonzero"/><path fill="#ffffff" d="M 483.539062 153.96875 L 492.363281 153.96875 L 492.363281 151.273438 L 483.539062 151.273438 L 483.539062 153.96875 " fill-opacity="1" fill-rule="nonzero"/><path fill="#ffffff" d="M 483.539062 162.796875 L 492.363281 162.796875 L 492.363281 160.101562 L 483.539062 160.101562 L 483.539062 162.796875 " fill-opacity="1" fill-rule="nonzero"/><path fill="#ffffff" d="M 483.539062 171.621094 L 492.363281 171.621094 L 492.363281 168.925781 L 483.539062 168.925781 L 483.539062 171.621094 " fill-opacity="1" fill-rule="nonzero"/><path fill="#ffffff" d="M 483.539062 180.449219 L 492.363281 180.449219 L 492.363281 177.753906 L 483.539062 177.753906 L 483.539062 180.449219 " fill-opacity="1" fill-rule="nonzero"/><path fill="#ffffff" d="M 483.539062 189.277344 L 492.363281 189.277344 L 492.363281 186.578125 L 483.539062 186.578125 L 483.539062 189.277344 " fill-opacity="1" fill-rule="nonzero"/><path fill="#ffffff" d="M 483.539062 198.101562 L 492.363281 198.101562 L 492.363281 195.40625 L 483.539062 195.40625 L 483.539062 198.101562 " fill-opacity="1" fill-rule="nonzero"/><path fill="#ffffff" d="M 483.539062 206.929688 L 492.363281 206.929688 L 492.363281 204.234375 L 483.539062 204.234375 L 483.539062 206.929688 " fill-opacity="1" fill-rule="nonzero"/><path fill="#ffffff" d="M 483.539062 215.761719 L 492.363281 215.761719 L 492.363281 213.058594 L 483.539062 213.058594 L 483.539062 215.761719 " fill-opacity="1" fill-rule="nonzero"/><path fill="#ffffff" d="M 483.539062 224.582031 L 492.363281 224.582031 L 492.363281 221.886719 L 483.539062 221.886719 L 483.539062 224.582031 " fill-opacity="1" fill-rule="nonzero"/><path fill="#ffffff" d="M 483.539062 233.40625 L 492.363281 233.40625 L 492.363281 230.710938 L 483.539062 230.710938 L 483.539062 233.40625 " fill-opacity="1" fill-rule="nonzero"/><path fill="#ffffff" d="M 483.539062 242.242188 L 492.363281 242.242188 L 492.363281 239.539062 L 483.539062 239.539062 L 483.539062 242.242188 " fill-opacity="1" fill-rule="nonzero"/><path fill="#ffffff" d="M 483.539062 251.0625 L 492.363281 251.0625 L 492.363281 248.367188 L 483.539062 248.367188 L 483.539062 251.0625 " fill-opacity="1" fill-rule="nonzero"/><path fill="#ffffff" d="M 483.539062 259.890625 L 492.363281 259.890625 L 492.363281 257.195312 L 483.539062 257.195312 L 483.539062 259.890625 " fill-opacity="1" fill-rule="nonzero"/><path fill="#ffffff" d="M 483.539062 268.722656 L 492.363281 268.722656 L 492.363281 266.019531 L 483.539062 266.019531 L 483.539062 268.722656 " fill-opacity="1" fill-rule="nonzero"/><path fill="#ffffff" d="M 483.539062 277.546875 L 492.363281 277.546875 L 492.363281 274.851562 L 483.539062 274.851562 L 483.539062 277.546875 " fill-opacity="1" fill-rule="nonzero"/><path fill="#ed3947" d="M 536.007812 107.132812 L 501.679688 107.132812 L 501.679688 109.832031 L 536.007812 109.832031 L 536.007812 107.132812 " fill-opacity="1" fill-rule="nonzero"/><path fill="#ed3947" d="M 571.695312 205.582031 L 537.371094 205.582031 L 537.371094 208.273438 L 571.695312 208.273438 L 571.695312 205.582031 " fill-opacity="1" fill-rule="nonzero"/><path fill="#ed3947" d="M 550.363281 198.101562 L 550.363281 195.40625 L 537.371094 195.40625 L 537.371094 198.101562 L 550.363281 198.101562 " fill-opacity="1" fill-rule="nonzero"/><path fill="#3bbec5" d="M 514.675781 115.964844 L 501.679688 115.964844 L 501.679688 118.660156 L 514.675781 118.660156 L 514.675781 115.964844 " fill-opacity="1" fill-rule="nonzero"/><path fill="#3bbec5" d="M 501.679688 127.484375 L 520.929688 127.484375 L 520.929688 124.792969 L 501.679688 124.792969 L 501.679688 127.484375 " fill-opacity="1" fill-rule="nonzero"/><path fill="#00adef" d="M 524.234375 124.792969 L 524.234375 127.484375 L 530.859375 127.484375 L 530.859375 124.792969 L 524.234375 124.792969 " fill-opacity="1" fill-rule="nonzero"/><path fill="#3bbec5" d="M 550.609375 215.761719 L 550.609375 213.058594 L 537.617188 213.058594 L 537.617188 215.761719 L 550.609375 215.761719 " fill-opacity="1" fill-rule="nonzero"/><path fill="#3bbec5" d="M 537.617188 224.582031 L 556.863281 224.582031 L 556.863281 221.886719 L 537.617188 221.886719 L 537.617188 224.582031 " fill-opacity="1" fill-rule="nonzero"/><path fill="#00adef" d="M 566.796875 221.886719 L 560.171875 221.886719 L 560.171875 224.582031 L 566.796875 224.582031 L 566.796875 221.886719 " fill-opacity="1" fill-rule="nonzero"/><path fill="#3bbec5" d="M 550.609375 260.261719 L 537.617188 260.261719 L 537.617188 262.957031 L 550.609375 262.957031 L 550.609375 260.261719 " fill-opacity="1" fill-rule="nonzero"/><path fill="#3bbec5" d="M 537.617188 271.777344 L 556.863281 271.777344 L 556.863281 269.082031 L 537.617188 269.082031 L 537.617188 271.777344 " fill-opacity="1" fill-rule="nonzero"/><path fill="#00adef" d="M 560.171875 271.777344 L 566.796875 271.777344 L 566.796875 269.082031 L 560.171875 269.082031 L 560.171875 271.777344 " fill-opacity="1" fill-rule="nonzero"/><path fill="#3bbec5" d="M 501.679688 171.621094 L 520.929688 171.621094 L 520.929688 168.925781 L 501.679688 168.925781 L 501.679688 171.621094 " fill-opacity="1" fill-rule="nonzero"/><path fill="#00adef" d="M 524.234375 171.621094 L 530.859375 171.621094 L 530.859375 168.925781 L 524.234375 168.925781 L 524.234375 171.621094 " fill-opacity="1" fill-rule="nonzero"/><path fill="#80cc28" d="M 549.742188 107.132812 L 540.910156 107.132812 L 540.910156 109.832031 L 549.742188 109.832031 L 549.742188 107.132812 " fill-opacity="1" fill-rule="nonzero"/><path fill="#80cc28" d="M 561.75 180.449219 L 524.234375 180.449219 L 524.234375 183.144531 L 561.75 183.144531 L 561.75 180.449219 " fill-opacity="1" fill-rule="nonzero"/><path fill="#ffffff" d="M 524.234375 136.316406 L 562.855469 136.316406 L 562.855469 133.617188 L 524.234375 133.617188 L 524.234375 136.316406 " fill-opacity="1" fill-rule="nonzero"/><path fill="#ffffff" d="M 638.253906 133.617188 L 582.347656 133.617188 L 582.347656 136.316406 L 638.253906 136.316406 L 638.253906 133.617188 " fill-opacity="1" fill-rule="nonzero"/><path fill="#ffffff" d="M 576.460938 133.617188 L 566.53125 133.617188 L 566.53125 136.316406 L 576.460938 136.316406 L 576.460938 133.617188 " fill-opacity="1" fill-rule="nonzero"/><path fill="#ffffff" d="M 532.695312 152.621094 L 571.316406 152.621094 L 571.316406 149.921875 L 532.695312 149.921875 L 532.695312 152.621094 " fill-opacity="1" fill-rule="nonzero"/><path fill="#ffffff" d="M 590.804688 152.621094 L 646.710938 152.621094 L 646.710938 149.921875 L 590.804688 149.921875 L 590.804688 152.621094 " fill-opacity="1" fill-rule="nonzero"/><path fill="#ffffff" d="M 574.992188 152.621094 L 584.917969 152.621094 L 584.917969 149.921875 L 574.992188 149.921875 L 574.992188 152.621094 " fill-opacity="1" fill-rule="nonzero"/><path fill="#ffffff" d="M 532.695312 141.097656 L 532.695312 143.792969 L 557.339844 143.792969 L 557.339844 141.097656 L 532.695312 141.097656 " fill-opacity="1" fill-rule="nonzero"/><path fill="#ffffff" d="M 571.316406 141.097656 L 561.75 141.097656 L 561.75 143.792969 L 571.316406 143.792969 L 571.316406 141.097656 " fill-opacity="1" fill-rule="nonzero"/><path fill="#ffffff" d="M 610.300781 143.792969 L 610.300781 141.097656 L 590.804688 141.097656 L 590.804688 143.792969 L 610.300781 143.792969 " fill-opacity="1" fill-rule="nonzero"/><path fill="#ffffff" d="M 584.917969 141.097656 L 574.992188 141.097656 L 574.992188 143.792969 L 584.917969 143.792969 L 584.917969 141.097656 " fill-opacity="1" fill-rule="nonzero"/><path fill="#ffffff" d="M 532.695312 162.796875 L 589.335938 162.796875 L 589.335938 160.101562 L 532.695312 160.101562 L 532.695312 162.796875 " fill-opacity="1" fill-rule="nonzero"/><path fill="#ffffff" d="M 592.644531 162.796875 L 636.042969 162.796875 L 636.042969 160.101562 L 592.644531 160.101562 L 592.644531 162.796875 " fill-opacity="1" fill-rule="nonzero"/><path fill="#ffffff" d="M 588.84375 235.808594 L 564.207031 235.808594 L 564.207031 238.503906 L 588.84375 238.503906 L 588.84375 235.808594 " fill-opacity="1" fill-rule="nonzero"/><path fill="#ffffff" d="M 593.261719 238.503906 L 602.824219 238.503906 L 602.824219 235.808594 L 593.261719 235.808594 L 593.261719 238.503906 " fill-opacity="1" fill-rule="nonzero"/><path fill="#ffffff" d="M 622.3125 235.808594 L 622.3125 238.503906 L 622.988281 238.503906 C 623.152344 237.449219 623.425781 236.609375 623.835938 235.808594 L 622.3125 235.808594 " fill-opacity="1" fill-rule="nonzero"/><path fill="#ffffff" d="M 606.5 238.503906 L 616.433594 238.503906 L 616.433594 235.808594 L 606.5 235.808594 L 606.5 238.503906 " fill-opacity="1" fill-rule="nonzero"/><path fill="#ffffff" d="M 564.203125 248.367188 L 597.058594 248.367188 L 597.058594 245.671875 L 564.203125 245.671875 L 564.203125 248.367188 " fill-opacity="1" fill-rule="nonzero"/><path fill="#ffffff" d="M 600.492188 245.671875 L 600.492188 248.367188 L 622.777344 248.367188 C 622.765625 247.386719 622.753906 246.496094 622.742188 245.671875 L 600.492188 245.671875 " fill-opacity="1" fill-rule="nonzero"/><path fill="#ffffff" d="M 564.203125 257.195312 L 578.425781 257.195312 L 578.425781 254.496094 L 564.203125 254.496094 L 564.203125 257.195312 " fill-opacity="1" fill-rule="nonzero"/><path fill="#ffffff" d="M 582.59375 257.195312 L 597.058594 257.195312 L 597.058594 254.496094 L 582.59375 254.496094 L 582.59375 257.195312 " fill-opacity="1" fill-rule="nonzero"/><path fill="#ffffff" d="M 600.492188 254.496094 L 600.492188 257.195312 L 629.320312 257.195312 C 628.070312 256.320312 626.953125 255.417969 626.003906 254.496094 L 600.492188 254.496094 " fill-opacity="1" fill-rule="nonzero"/><path fill="#223150" d="M 723.027344 168.929688 L 731.871094 168.929688 L 731.871094 171.628906 L 723.027344 171.628906 Z M 723.027344 124.792969 L 731.871094 124.792969 L 731.871094 127.484375 L 723.027344 127.484375 Z M 723.027344 115.96875 L 728.996094 115.96875 L 728.996094 118.664062 L 723.027344 118.664062 Z M 723.027344 107.136719 L 738.800781 107.136719 L 738.800781 109.835938 L 723.027344 109.835938 Z M 741.050781 107.136719 L 745.113281 107.136719 L 745.113281 109.835938 L 741.050781 109.835938 Z M 733.390625 127.484375 L 733.390625 124.792969 L 736.4375 124.792969 L 736.4375 127.484375 Z M 751.128906 136.3125 L 733.390625 136.3125 L 733.390625 133.621094 L 751.128906 133.621094 Z M 752.820312 133.621094 L 757.386719 133.621094 L 757.386719 136.3125 L 752.820312 136.3125 Z M 760.085938 133.621094 L 785.769531 133.621094 L 785.769531 136.3125 L 760.085938 136.3125 Z M 763.976562 143.792969 L 763.976562 141.101562 L 772.929688 141.101562 L 772.929688 143.792969 Z M 789.65625 152.621094 L 763.976562 152.621094 L 763.976562 149.929688 L 789.65625 149.929688 Z M 789.597656 248.371094 L 768.421875 248.371094 L 768.421875 245.675781 L 789.597656 245.675781 Z M 789.597656 257.199219 L 785.769531 257.199219 L 785.769531 254.5 L 789.597656 254.5 Z M 784.300781 257.199219 L 768.421875 257.199219 L 768.421875 254.5 L 784.300781 254.5 Z M 769.496094 235.808594 L 769.496094 238.503906 L 765.105469 238.503906 L 765.105469 235.808594 Z M 775.746094 235.808594 L 775.746094 238.503906 L 771.183594 238.503906 L 771.183594 235.808594 Z M 787.40625 235.808594 L 787.40625 238.503906 L 778.445312 238.503906 L 778.445312 235.808594 Z M 784.753906 162.796875 L 764.820312 162.796875 L 764.820312 160.101562 L 784.753906 160.101562 Z M 766.84375 248.371094 L 751.753906 248.371094 L 751.753906 245.675781 L 766.84375 245.675781 Z M 766.84375 257.199219 L 760.195312 257.199219 L 760.195312 254.5 L 766.84375 254.5 Z M 758.28125 257.199219 L 751.753906 257.199219 L 751.753906 254.5 L 758.28125 254.5 Z M 752.945312 271.785156 L 749.902344 271.785156 L 749.902344 269.085938 L 752.945312 269.085938 Z M 748.378906 224.582031 L 739.539062 224.582031 L 739.539062 221.886719 L 748.378906 221.886719 Z M 748.378906 271.785156 L 739.539062 271.785156 L 739.539062 269.085938 L 748.378906 269.085938 Z M 739.539062 260.261719 L 745.507812 260.261719 L 745.507812 262.960938 L 739.539062 262.960938 Z M 745.507812 213.058594 L 745.507812 215.757812 L 739.539062 215.757812 L 739.539062 213.058594 Z M 739.421875 205.582031 L 755.195312 205.582031 L 755.195312 208.277344 L 739.421875 208.277344 Z M 745.390625 195.410156 L 745.390625 198.101562 L 739.421875 198.101562 L 739.421875 195.410156 Z M 749.902344 224.582031 L 749.902344 221.886719 L 752.945312 221.886719 L 752.945312 224.582031 Z M 751.753906 235.808594 L 763.074219 235.808594 L 763.074219 238.503906 L 751.753906 238.503906 Z M 756.710938 143.792969 L 756.710938 141.101562 L 761.269531 141.101562 L 761.269531 143.792969 Z M 761.269531 149.929688 L 761.269531 152.621094 L 756.710938 152.621094 L 756.710938 149.929688 Z M 763.296875 160.101562 L 763.296875 162.796875 L 737.28125 162.796875 L 737.28125 160.101562 Z M 750.628906 143.792969 L 750.628906 141.101562 L 755.019531 141.101562 L 755.019531 143.792969 Z M 737.28125 143.792969 L 737.28125 141.101562 L 748.59375 141.101562 L 748.59375 143.792969 Z M 755.019531 149.929688 L 755.019531 152.621094 L 737.28125 152.621094 L 737.28125 149.929688 Z M 733.390625 171.628906 L 733.390625 168.929688 L 736.4375 168.929688 L 736.4375 171.628906 Z M 750.628906 180.453125 L 750.628906 183.152344 L 733.390625 183.152344 L 733.390625 180.453125 Z M 793.957031 282.449219 C 795.109375 274.410156 796.164062 266.695312 796.980469 259.546875 C 798.449219 246.679688 804.242188 228.03125 812.273438 213.875 L 812.273438 102.96875 L 718.226562 102.96875 L 718.226562 282.449219 L 793.957031 282.449219 " fill-opacity="1" fill-rule="nonzero"/><path fill="#223150" d="M 713.710938 109.835938 L 704.882812 109.835938 L 704.882812 107.136719 L 713.710938 107.136719 Z M 713.710938 118.664062 L 704.882812 118.664062 L 704.882812 115.96875 L 713.710938 115.96875 Z M 713.710938 127.484375 L 704.882812 127.484375 L 704.882812 124.792969 L 713.710938 124.792969 Z M 713.710938 136.3125 L 704.882812 136.3125 L 704.882812 133.621094 L 713.710938 133.621094 Z M 713.710938 145.144531 L 704.882812 145.144531 L 704.882812 142.449219 L 713.710938 142.449219 Z M 713.710938 153.96875 L 704.882812 153.96875 L 704.882812 151.273438 L 713.710938 151.273438 Z M 713.710938 162.796875 L 704.882812 162.796875 L 704.882812 160.101562 L 713.710938 160.101562 Z M 713.710938 171.628906 L 704.882812 171.628906 L 704.882812 168.929688 L 713.710938 168.929688 Z M 713.710938 180.453125 L 704.882812 180.453125 L 704.882812 177.753906 L 713.710938 177.753906 Z M 713.710938 189.28125 L 704.882812 189.28125 L 704.882812 186.582031 L 713.710938 186.582031 Z M 713.710938 198.101562 L 704.882812 198.101562 L 704.882812 195.410156 L 713.710938 195.410156 Z M 713.710938 206.929688 L 704.882812 206.929688 L 704.882812 204.238281 L 713.710938 204.238281 Z M 713.710938 215.757812 L 704.882812 215.757812 L 704.882812 213.058594 L 713.710938 213.058594 Z M 713.710938 224.582031 L 704.882812 224.582031 L 704.882812 221.886719 L 713.710938 221.886719 Z M 713.710938 233.414062 L 704.882812 233.414062 L 704.882812 230.710938 L 713.710938 230.710938 Z M 713.710938 242.242188 L 704.882812 242.242188 L 704.882812 239.542969 L 713.710938 239.542969 Z M 713.710938 251.070312 L 704.882812 251.070312 L 704.882812 248.371094 L 713.710938 248.371094 Z M 713.710938 259.890625 L 704.882812 259.890625 L 704.882812 257.199219 L 713.710938 257.199219 Z M 713.710938 268.71875 L 704.882812 268.71875 L 704.882812 266.019531 L 713.710938 266.019531 Z M 713.710938 277.546875 L 704.882812 277.546875 L 704.882812 274.855469 L 713.710938 274.855469 Z M 717.042969 102.96875 L 700.957031 102.96875 L 700.957031 276.289062 C 703.082031 278.171875 705.503906 280.246094 708.1875 282.449219 L 717.042969 282.449219 L 717.042969 102.96875 " fill-opacity="1" fill-rule="nonzero"/><path fill="#ffffff" d="M 718.226562 282.449219 L 718.226562 102.96875 L 717.042969 102.96875 L 717.042969 282.449219 L 718.226562 282.449219 " fill-opacity="1" fill-rule="nonzero"/><path fill="#323660" d="M 741.8125 305.226562 L 790.699219 305.226562 C 791.378906 300.390625 792.066406 295.621094 792.746094 290.933594 L 719.1875 290.933594 C 725.914062 295.816406 733.558594 300.796875 741.8125 305.226562 " fill-opacity="1" fill-rule="nonzero"/><path fill="#323660" d="M 460.140625 65.570312 L 460.03125 65.570312 L 460.03125 305.222656 L 608.394531 305.222656 L 599.902344 345.027344 C 599.902344 345.027344 598.671875 351.113281 597.9375 355.371094 C 597.730469 356.578125 597.652344 357.640625 597.632812 358.636719 L 680.929688 358.636719 C 679.921875 352.609375 681.636719 345.027344 681.636719 345.027344 L 682.21875 342.292969 C 670.363281 331.984375 667.109375 323.65625 662.574219 308.21875 C 662.285156 307.226562 662.015625 306.226562 661.75 305.222656 C 660.503906 300.53125 659.546875 295.71875 658.964844 290.933594 L 471.40625 290.933594 L 471.40625 79.859375 L 821.125 79.859375 L 821.125 201.472656 C 822.582031 199.917969 824.074219 198.523438 825.601562 197.40625 C 827.199219 196.339844 829.632812 194.65625 832.5 192.648438 L 832.5 65.570312 L 460.140625 65.570312 " fill-opacity="1" fill-rule="nonzero"/><path fill="#323660" d="M 655.585938 90.464844 C 658.359375 90.464844 660.613281 92.71875 660.613281 95.492188 C 660.613281 98.265625 658.359375 100.519531 655.585938 100.519531 C 652.808594 100.519531 650.558594 98.265625 650.558594 95.492188 C 650.558594 92.71875 652.808594 90.464844 655.585938 90.464844 Z M 668.824219 90.464844 C 671.601562 90.464844 673.855469 92.71875 673.855469 95.492188 C 673.855469 98.265625 671.601562 100.519531 668.824219 100.519531 C 666.046875 100.519531 663.800781 98.265625 663.800781 95.492188 C 663.800781 92.71875 666.046875 90.464844 668.824219 90.464844 Z M 681.945312 90.464844 C 684.71875 90.464844 686.972656 92.71875 686.972656 95.492188 C 686.972656 98.265625 684.71875 100.519531 681.945312 100.519531 C 679.167969 100.519531 676.914062 98.265625 676.914062 95.492188 C 676.914062 92.71875 679.167969 90.464844 681.945312 90.464844 Z M 479.609375 102.894531 L 695.785156 102.894531 L 695.785156 88.089844 L 479.609375 88.089844 L 479.609375 102.894531 " fill-opacity="1" fill-rule="nonzero"/><path fill="#323660" d="M 772.074219 90.464844 C 774.847656 90.464844 777.097656 92.71875 777.097656 95.492188 C 777.097656 98.265625 774.847656 100.519531 772.074219 100.519531 C 769.296875 100.519531 767.042969 98.265625 767.042969 95.492188 C 767.042969 92.71875 769.296875 90.464844 772.074219 90.464844 Z M 785.3125 90.464844 C 788.085938 90.464844 790.335938 92.71875 790.335938 95.492188 C 790.335938 98.265625 788.085938 100.519531 785.3125 100.519531 C 782.542969 100.519531 780.285156 98.265625 780.285156 95.492188 C 780.285156 92.71875 782.542969 90.464844 785.3125 90.464844 Z M 798.433594 90.464844 C 801.207031 90.464844 803.457031 92.71875 803.457031 95.492188 C 803.457031 98.265625 801.207031 100.519531 798.433594 100.519531 C 795.65625 100.519531 793.398438 98.265625 793.398438 95.492188 C 793.398438 92.71875 795.65625 90.464844 798.433594 90.464844 Z M 700.957031 102.894531 L 812.277344 102.894531 L 812.277344 88.089844 L 700.957031 88.089844 L 700.957031 102.894531 " fill-opacity="1" fill-rule="nonzero"/><path fill="#3bbec5" d="M 772.070312 90.46875 C 769.292969 90.46875 767.042969 92.71875 767.042969 95.496094 C 767.042969 98.269531 769.292969 100.519531 772.070312 100.519531 C 774.84375 100.519531 777.09375 98.269531 777.09375 95.496094 C 777.09375 92.71875 774.84375 90.46875 772.070312 90.46875 " fill-opacity="1" fill-rule="nonzero"/><path fill="#3bbec5" d="M 785.308594 90.46875 C 782.535156 90.46875 780.285156 92.71875 780.285156 95.496094 C 780.285156 98.269531 782.535156 100.519531 785.308594 100.519531 C 788.085938 100.519531 790.335938 98.269531 790.335938 95.496094 C 790.335938 92.71875 788.085938 90.46875 785.308594 90.46875 " fill-opacity="1" fill-rule="nonzero"/><path fill="#3bbec5" d="M 798.425781 90.46875 C 795.65625 90.46875 793.394531 92.71875 793.394531 95.496094 C 793.394531 98.269531 795.65625 100.519531 798.425781 100.519531 C 801.203125 100.519531 803.453125 98.269531 803.453125 95.496094 C 803.453125 92.71875 801.203125 90.46875 798.425781 90.46875 " fill-opacity="1" fill-rule="nonzero"/><path fill="#ffffff" d="M 704.886719 109.832031 L 713.707031 109.832031 L 713.707031 107.132812 L 704.886719 107.132812 L 704.886719 109.832031 " fill-opacity="1" fill-rule="nonzero"/><path fill="#ffffff" d="M 704.882812 118.660156 L 713.710938 118.660156 L 713.710938 115.964844 L 704.882812 115.964844 L 704.882812 118.660156 " fill-opacity="1" fill-rule="nonzero"/><path fill="#ffffff" d="M 704.882812 127.484375 L 713.710938 127.484375 L 713.710938 124.792969 L 704.882812 124.792969 L 704.882812 127.484375 " fill-opacity="1" fill-rule="nonzero"/><path fill="#ffffff" d="M 704.882812 136.316406 L 713.710938 136.316406 L 713.710938 133.617188 L 704.882812 133.617188 L 704.882812 136.316406 " fill-opacity="1" fill-rule="nonzero"/><path fill="#ffffff" d="M 704.882812 145.144531 L 713.710938 145.144531 L 713.710938 142.445312 L 704.882812 142.445312 L 704.882812 145.144531 " fill-opacity="1" fill-rule="nonzero"/><path fill="#ffffff" d="M 704.882812 153.96875 L 713.710938 153.96875 L 713.710938 151.273438 L 704.882812 151.273438 L 704.882812 153.96875 " fill-opacity="1" fill-rule="nonzero"/><path fill="#ffffff" d="M 704.882812 162.796875 L 713.710938 162.796875 L 713.710938 160.101562 L 704.882812 160.101562 L 704.882812 162.796875 " fill-opacity="1" fill-rule="nonzero"/><path fill="#ffffff" d="M 704.882812 171.621094 L 713.710938 171.621094 L 713.710938 168.925781 L 704.882812 168.925781 L 704.882812 171.621094 " fill-opacity="1" fill-rule="nonzero"/><path fill="#ffffff" d="M 704.882812 180.449219 L 713.710938 180.449219 L 713.710938 177.753906 L 704.882812 177.753906 L 704.882812 180.449219 " fill-opacity="1" fill-rule="nonzero"/><path fill="#ffffff" d="M 704.882812 189.277344 L 713.710938 189.277344 L 713.710938 186.578125 L 704.882812 186.578125 L 704.882812 189.277344 " fill-opacity="1" fill-rule="nonzero"/><path fill="#ffffff" d="M 704.882812 198.101562 L 713.710938 198.101562 L 713.710938 195.40625 L 704.882812 195.40625 L 704.882812 198.101562 " fill-opacity="1" fill-rule="nonzero"/><path fill="#ffffff" d="M 704.882812 206.929688 L 713.710938 206.929688 L 713.710938 204.234375 L 704.882812 204.234375 L 704.882812 206.929688 " fill-opacity="1" fill-rule="nonzero"/><path fill="#ffffff" d="M 704.882812 215.761719 L 713.710938 215.761719 L 713.710938 213.058594 L 704.882812 213.058594 L 704.882812 215.761719 " fill-opacity="1" fill-rule="nonzero"/><path fill="#ffffff" d="M 704.882812 224.582031 L 713.710938 224.582031 L 713.710938 221.886719 L 704.882812 221.886719 L 704.882812 224.582031 " fill-opacity="1" fill-rule="nonzero"/><path fill="#ffffff" d="M 704.882812 233.40625 L 713.710938 233.40625 L 713.710938 230.710938 L 704.882812 230.710938 L 704.882812 233.40625 " fill-opacity="1" fill-rule="nonzero"/><path fill="#ffffff" d="M 704.882812 242.242188 L 713.710938 242.242188 L 713.710938 239.539062 L 704.882812 239.539062 L 704.882812 242.242188 " fill-opacity="1" fill-rule="nonzero"/><path fill="#ffffff" d="M 704.882812 251.0625 L 713.710938 251.0625 L 713.710938 248.367188 L 704.882812 248.367188 L 704.882812 251.0625 " fill-opacity="1" fill-rule="nonzero"/><path fill="#ffffff" d="M 704.882812 259.890625 L 713.710938 259.890625 L 713.710938 257.195312 L 704.882812 257.195312 L 704.882812 259.890625 " fill-opacity="1" fill-rule="nonzero"/><path fill="#ffffff" d="M 704.882812 268.722656 L 713.710938 268.722656 L 713.710938 266.019531 L 704.882812 266.019531 L 704.882812 268.722656 " fill-opacity="1" fill-rule="nonzero"/><path fill="#ffffff" d="M 704.882812 277.546875 L 713.710938 277.546875 L 713.710938 274.851562 L 704.882812 274.851562 L 704.882812 277.546875 " fill-opacity="1" fill-rule="nonzero"/><path fill="#ed3947" d="M 738.796875 107.132812 L 723.03125 107.132812 L 723.03125 109.832031 L 738.796875 109.832031 L 738.796875 107.132812 " fill-opacity="1" fill-rule="nonzero"/><path fill="#ed3947" d="M 755.195312 205.582031 L 739.425781 205.582031 L 739.425781 208.273438 L 755.195312 208.273438 L 755.195312 205.582031 " fill-opacity="1" fill-rule="nonzero"/><path fill="#ed3947" d="M 745.394531 198.101562 L 745.394531 195.40625 L 739.425781 195.40625 L 739.425781 198.101562 L 745.394531 198.101562 " fill-opacity="1" fill-rule="nonzero"/><path fill="#3bbec5" d="M 728.996094 115.964844 L 723.03125 115.964844 L 723.03125 118.660156 L 728.996094 118.660156 L 728.996094 115.964844 " fill-opacity="1" fill-rule="nonzero"/><path fill="#3bbec5" d="M 731.871094 124.792969 L 723.03125 124.792969 L 723.03125 127.484375 L 731.871094 127.484375 L 731.871094 124.792969 " fill-opacity="1" fill-rule="nonzero"/><path fill="#00adef" d="M 733.390625 124.792969 L 733.390625 127.484375 L 736.4375 127.484375 L 736.4375 124.792969 L 733.390625 124.792969 " fill-opacity="1" fill-rule="nonzero"/><path fill="#3bbec5" d="M 745.507812 215.761719 L 745.507812 213.058594 L 739.542969 213.058594 L 739.542969 215.761719 L 745.507812 215.761719 " fill-opacity="1" fill-rule="nonzero"/><path fill="#3bbec5" d="M 739.542969 224.582031 L 748.378906 224.582031 L 748.378906 221.886719 L 739.542969 221.886719 L 739.542969 224.582031 " fill-opacity="1" fill-rule="nonzero"/><path fill="#00adef" d="M 752.949219 221.886719 L 749.902344 221.886719 L 749.902344 224.582031 L 752.949219 224.582031 L 752.949219 221.886719 " fill-opacity="1" fill-rule="nonzero"/><path fill="#3bbec5" d="M 745.507812 260.261719 L 739.542969 260.261719 L 739.542969 262.957031 L 745.507812 262.957031 L 745.507812 260.261719 " fill-opacity="1" fill-rule="nonzero"/><path fill="#3bbec5" d="M 739.542969 271.777344 L 748.378906 271.777344 L 748.378906 269.082031 L 739.542969 269.082031 L 739.542969 271.777344 " fill-opacity="1" fill-rule="nonzero"/><path fill="#00adef" d="M 749.902344 271.777344 L 752.949219 271.777344 L 752.949219 269.082031 L 749.902344 269.082031 L 749.902344 271.777344 " fill-opacity="1" fill-rule="nonzero"/><path fill="#3bbec5" d="M 731.871094 168.925781 L 723.03125 168.925781 L 723.03125 171.621094 L 731.871094 171.621094 L 731.871094 168.925781 " fill-opacity="1" fill-rule="nonzero"/><path fill="#00adef" d="M 733.390625 168.925781 L 733.390625 171.621094 L 736.4375 171.621094 L 736.4375 168.925781 L 733.390625 168.925781 " fill-opacity="1" fill-rule="nonzero"/><path fill="#80cc28" d="M 745.113281 107.132812 L 741.054688 107.132812 L 741.054688 109.832031 L 745.113281 109.832031 L 745.113281 107.132812 " fill-opacity="1" fill-rule="nonzero"/><path fill="#80cc28" d="M 733.390625 183.144531 L 750.628906 183.144531 L 750.628906 180.449219 L 733.390625 180.449219 L 733.390625 183.144531 " fill-opacity="1" fill-rule="nonzero"/><path fill="#ffffff" d="M 733.390625 136.316406 L 751.132812 136.316406 L 751.132812 133.617188 L 733.390625 133.617188 L 733.390625 136.316406 " fill-opacity="1" fill-rule="nonzero"/><path fill="#ffffff" d="M 785.773438 133.617188 L 760.089844 133.617188 L 760.089844 136.316406 L 785.773438 136.316406 L 785.773438 133.617188 " fill-opacity="1" fill-rule="nonzero"/><path fill="#ffffff" d="M 757.386719 133.617188 L 752.816406 133.617188 L 752.816406 136.316406 L 757.386719 136.316406 L 757.386719 133.617188 " fill-opacity="1" fill-rule="nonzero"/><path fill="#ffffff" d="M 737.28125 152.621094 L 755.023438 152.621094 L 755.023438 149.921875 L 737.28125 149.921875 L 737.28125 152.621094 " fill-opacity="1" fill-rule="nonzero"/><path fill="#ffffff" d="M 763.980469 152.621094 L 789.65625 152.621094 L 789.65625 149.921875 L 763.980469 149.921875 L 763.980469 152.621094 " fill-opacity="1" fill-rule="nonzero"/><path fill="#ffffff" d="M 756.707031 152.621094 L 761.273438 152.621094 L 761.273438 149.921875 L 756.707031 149.921875 L 756.707031 152.621094 " fill-opacity="1" fill-rule="nonzero"/><path fill="#ffffff" d="M 737.28125 141.097656 L 737.28125 143.792969 L 748.597656 143.792969 L 748.597656 141.097656 L 737.28125 141.097656 " fill-opacity="1" fill-rule="nonzero"/><path fill="#ffffff" d="M 755.023438 141.097656 L 750.628906 141.097656 L 750.628906 143.792969 L 755.023438 143.792969 L 755.023438 141.097656 " fill-opacity="1" fill-rule="nonzero"/><path fill="#ffffff" d="M 763.980469 141.097656 L 763.980469 143.792969 L 772.933594 143.792969 L 772.933594 141.097656 L 763.980469 141.097656 " fill-opacity="1" fill-rule="nonzero"/><path fill="#ffffff" d="M 761.273438 141.097656 L 756.707031 141.097656 L 756.707031 143.792969 L 761.273438 143.792969 L 761.273438 141.097656 " fill-opacity="1" fill-rule="nonzero"/><path fill="#ffffff" d="M 737.28125 162.796875 L 763.296875 162.796875 L 763.296875 160.101562 L 737.28125 160.101562 L 737.28125 162.796875 " fill-opacity="1" fill-rule="nonzero"/><path fill="#ffffff" d="M 764.820312 162.796875 L 784.757812 162.796875 L 784.757812 160.101562 L 764.820312 160.101562 L 764.820312 162.796875 " fill-opacity="1" fill-rule="nonzero"/><path fill="#ffffff" d="M 763.078125 235.808594 L 751.757812 235.808594 L 751.757812 238.503906 L 763.078125 238.503906 L 763.078125 235.808594 " fill-opacity="1" fill-rule="nonzero"/><path fill="#ffffff" d="M 769.496094 238.503906 L 769.496094 235.808594 L 765.105469 235.808594 L 765.105469 238.503906 L 769.496094 238.503906 " fill-opacity="1" fill-rule="nonzero"/><path fill="#ffffff" d="M 778.449219 238.503906 L 787.40625 238.503906 L 787.40625 235.808594 L 778.449219 235.808594 L 778.449219 238.503906 " fill-opacity="1" fill-rule="nonzero"/><path fill="#ffffff" d="M 775.746094 238.503906 L 775.746094 235.808594 L 771.1875 235.808594 L 771.1875 238.503906 L 775.746094 238.503906 " fill-opacity="1" fill-rule="nonzero"/><path fill="#ffffff" d="M 751.757812 248.367188 L 766.847656 248.367188 L 766.847656 245.671875 L 751.757812 245.671875 L 751.757812 248.367188 " fill-opacity="1" fill-rule="nonzero"/><path fill="#ffffff" d="M 768.425781 248.367188 L 789.601562 248.367188 L 789.601562 245.671875 L 768.425781 245.671875 L 768.425781 248.367188 " fill-opacity="1" fill-rule="nonzero"/><path fill="#ffffff" d="M 751.757812 257.195312 L 758.285156 257.195312 L 758.285156 254.496094 L 751.757812 254.496094 L 751.757812 257.195312 " fill-opacity="1" fill-rule="nonzero"/><path fill="#ffffff" d="M 760.199219 257.195312 L 766.847656 257.195312 L 766.847656 254.496094 L 760.199219 254.496094 L 760.199219 257.195312 " fill-opacity="1" fill-rule="nonzero"/><path fill="#ffffff" d="M 785.773438 257.195312 L 789.601562 257.195312 L 789.601562 254.496094 L 785.773438 254.496094 L 785.773438 257.195312 " fill-opacity="1" fill-rule="nonzero"/><path fill="#ffffff" d="M 768.425781 257.195312 L 784.300781 257.195312 L 784.300781 254.496094 L 768.425781 254.496094 L 768.425781 257.195312 " fill-opacity="1" fill-rule="nonzero"/><path fill="#dfb38f" d="M 735.390625 380.816406 C 733.191406 379.101562 727.464844 375.503906 720.15625 370.832031 C 718.21875 369.59375 716.15625 368.269531 714.027344 366.886719 L 538.589844 366.886719 L 538.589844 390.246094 L 751.738281 390.246094 C 749.90625 389.339844 747.929688 388.332031 745.953125 387.273438 C 741.859375 385.078125 737.859375 382.738281 735.390625 380.816406 " fill-opacity="1" fill-rule="nonzero"/><path fill="#dfb38f" d="M 1076.3125 366.886719 C 1075.511719 374.675781 1074.695312 382.464844 1073.875 390.25 L 1136.097656 390.25 L 1136.097656 366.886719 L 1076.3125 366.886719 " fill-opacity="1" fill-rule="nonzero"/><path fill="#c58062" d="M 517.464844 390.246094 L 538.589844 390.246094 L 538.589844 366.886719 L 323.164062 366.886719 L 323.164062 390.246094 L 517.464844 390.246094 " fill-opacity="1" fill-rule="nonzero"/><g clip-path="url(#df82fd20a6)"><path fill="#27294a" d="M 1136.097656 390.246094 L 1114.976562 390.246094 L 1122.128906 462.683594 L 1066.621094 462.683594 C 1065.988281 469.753906 1065.402344 476.828125 1064.859375 483.902344 L 1124.21875 483.902344 L 1156.40625 810.011719 L 1177.527344 810.011719 L 1136.097656 390.246094 " fill-opacity="1" fill-rule="nonzero"/></g><path fill="#27294a" d="M 941.636719 602.632812 L 960.183594 790.570312 L 981.984375 797.398438 L 962.757812 602.632812 L 941.636719 602.632812 " fill-opacity="1" fill-rule="nonzero"/><g clip-path="url(#b95bb5a9ab)"><path fill="#27294a" d="M 510.316406 462.683594 L 337.136719 462.683594 L 344.285156 390.246094 L 323.164062 390.246094 L 281.734375 810.011719 L 302.859375 810.011719 L 335.042969 483.902344 L 508.222656 483.902344 L 477.128906 798.949219 C 477.699219 798.429688 478.320312 797.90625 479.054688 797.398438 L 498.960938 791.78125 L 538.589844 390.246094 L 517.464844 390.246094 L 510.316406 462.683594 " fill-opacity="1" fill-rule="nonzero"/></g><path fill="#14172c" d="M 678.832031 779.367188 L 619.449219 797.398438 C 611.152344 803.167969 613.824219 810.011719 613.824219 810.011719 L 738.964844 810.011719 L 730.089844 765.359375 L 697.914062 760.839844 L 678.832031 779.367188 " fill-opacity="1" fill-rule="nonzero"/><path fill="#1c213f" d="M 718.152344 596.949219 L 716.683594 601.519531 C 717.292969 601.730469 717.621094 602.390625 717.417969 603.007812 C 713.699219 614.226562 712.605469 618.429688 709.730469 626.058594 C 706.101562 635.679688 702.382812 650.3125 699.035156 660.15625 C 692.5 679.382812 685.386719 704.355469 677.308594 727.613281 C 677.09375 728.21875 676.4375 728.539062 675.828125 728.34375 L 673.148438 736.664062 C 673.148438 736.664062 683.921875 744.320312 699.308594 751.433594 C 708.648438 755.753906 719.683594 759.867188 731.042969 761.960938 C 732.363281 762.203125 733.6875 762.425781 735.011719 762.617188 L 807.644531 602.632812 L 731.191406 602.632812 C 726.039062 602.632812 721.414062 600.441406 718.152344 596.949219 " fill-opacity="1" fill-rule="nonzero"/><path fill="#232950" d="M 542.933594 779.367188 L 498.960938 791.78125 L 479.054688 797.398438 C 478.320312 797.90625 477.699219 798.429688 477.128906 798.949219 C 471.234375 804.324219 473.425781 810.011719 473.425781 810.011719 L 603.070312 810.011719 L 594.195312 765.359375 L 562.019531 760.839844 L 542.933594 779.367188 " fill-opacity="1" fill-rule="nonzero"/><path fill="#29315e" d="M 853.105469 465.175781 C 844.5 464.78125 810.328125 462.253906 799.605469 451.558594 C 799.410156 451.742188 799.164062 451.871094 798.882812 451.890625 C 769.597656 453.847656 739.8125 456.660156 714.738281 457.585938 C 706.644531 457.882812 698.398438 457.753906 690.222656 457.992188 L 677.417969 458.851562 C 677.074219 458.851562 676.753906 458.875 676.414062 458.875 C 670.765625 459.5 665.207031 460.519531 659.8125 462.195312 C 643.246094 467.355469 633.753906 479.203125 627.011719 493.550781 C 620.285156 507.878906 616.449219 524.609375 611.292969 539.097656 C 603.414062 561.183594 594.882812 583.09375 586.675781 605.023438 C 580.957031 620.308594 568.636719 650.921875 558.417969 681.957031 C 558.214844 682.578125 557.546875 682.914062 556.925781 682.710938 C 556.914062 682.710938 556.90625 682.699219 556.890625 682.695312 L 537.253906 736.664062 C 537.253906 736.664062 548.027344 744.3125 563.410156 751.433594 C 572.75 755.753906 583.789062 759.867188 595.148438 761.953125 C 596.46875 762.203125 597.789062 762.425781 599.117188 762.617188 L 713.328125 551.871094 L 721.863281 551.871094 C 724.585938 550.199219 727.769531 549.222656 731.191406 549.222656 L 853.734375 549.222656 C 866.960938 531.441406 869.726562 498.605469 872.496094 477.011719 C 872.636719 475.949219 872.703125 474.84375 872.824219 473.765625 C 867.621094 468.96875 861.503906 465.5625 853.105469 465.175781 " fill-opacity="1" fill-rule="nonzero"/><path fill="#451a29" d="M 940.855469 61.953125 C 940.695312 50.640625 939.164062 26.832031 922.707031 22.996094 C 912.542969 20.628906 913.574219 25.605469 908.0625 22.105469 C 895.023438 13.816406 878.535156 16.339844 871.21875 15.789062 C 851.117188 0.00390625 843.75 22.105469 843.75 22.105469 C 829.152344 24.46875 831.90625 37.492188 831.90625 37.492188 C 831.726562 41.917969 818.847656 42.222656 826.796875 55.855469 C 829.5 60.496094 838.292969 60.140625 847.457031 62.058594 C 856.597656 63.972656 866.101562 68.15625 870.292969 81.824219 C 871.195312 84.761719 871.628906 84.429688 872.050781 82.511719 C 870.675781 77.457031 870.667969 71.277344 874.746094 67.34375 C 875.898438 66.222656 877.25 65.566406 878.683594 65.222656 C 879.148438 64.9375 879.644531 64.707031 880.183594 64.558594 C 884.386719 63.421875 887.835938 65.339844 890.355469 68.492188 C 891.300781 69.28125 892.09375 70.144531 892.617188 71.023438 C 896.042969 76.625 896.007812 85.152344 891.261719 90.917969 C 890.265625 92.121094 889.273438 93.003906 888.269531 93.660156 C 890.878906 100.769531 898.234375 114.65625 901.195312 119.894531 C 901.59375 120.59375 901.933594 121.179688 902.144531 121.527344 C 905.101562 126.375 922.648438 125.023438 932.851562 121.320312 C 942.558594 117.808594 940.855469 108.070312 940.855469 104.957031 C 940.855469 82.871094 941.21875 87.503906 940.855469 61.953125 " fill-opacity="1" fill-rule="nonzero"/><path fill="#592630" d="M 886.566406 87.21875 C 886.226562 87.121094 885.90625 86.949219 885.589844 86.789062 C 883.941406 85.992188 882.550781 84.53125 881.546875 82.664062 C 881.101562 81.839844 880.761719 80.945312 880.472656 80.039062 C 880.140625 80.351562 879.640625 80.449219 879.195312 80.253906 C 878.597656 79.988281 878.320312 79.289062 878.585938 78.691406 C 878.882812 78.035156 879.316406 77.480469 879.816406 76.996094 C 879.761719 76.5 879.71875 76.007812 879.71875 75.539062 C 879.710938 74.679688 879.816406 73.914062 879.984375 73.261719 C 880.089844 72.863281 880.210938 72.496094 880.371094 72.210938 C 880.679688 71.632812 880.453125 70.914062 879.878906 70.613281 C 879.304688 70.304688 878.585938 70.523438 878.285156 71.105469 C 877.621094 72.359375 877.355469 73.890625 877.347656 75.539062 C 877.355469 78.191406 878.070312 81.179688 879.464844 83.785156 C 880.863281 86.378906 882.992188 88.628906 885.902344 89.492188 C 886.535156 89.671875 887.195312 89.3125 887.375 88.683594 C 887.554688 88.058594 887.195312 87.40625 886.566406 87.21875 " fill-opacity="1" fill-rule="nonzero"/><path fill="#592630" d="M 879.820312 76.996094 C 879.324219 77.476562 878.886719 78.027344 878.589844 78.691406 C 878.328125 79.289062 878.601562 79.984375 879.199219 80.246094 C 879.640625 80.445312 880.144531 80.347656 880.476562 80.035156 C 880.59375 79.925781 880.691406 79.792969 880.761719 79.648438 C 880.96875 79.148438 881.421875 78.652344 882.042969 78.210938 C 882.304688 78.011719 882.59375 77.824219 882.910156 77.660156 C 883.957031 77.097656 885.199219 76.714844 886.210938 76.519531 C 886.851562 76.394531 887.265625 75.769531 887.140625 75.128906 C 887.019531 74.484375 886.402344 74.066406 885.757812 74.191406 C 884.546875 74.433594 883.113281 74.871094 881.796875 75.566406 C 881.566406 75.691406 881.339844 75.835938 881.117188 75.980469 C 880.660156 76.273438 880.210938 76.605469 879.820312 76.996094 " fill-opacity="1" fill-rule="nonzero"/><path fill="#1d1e32" d="M 886.3125 160.578125 C 906.804688 160.566406 928.085938 160.0625 946.027344 150.976562 C 946.613281 150.679688 946.84375 149.96875 946.550781 149.386719 C 946.253906 148.800781 945.539062 148.574219 944.960938 148.863281 C 927.6875 157.632812 906.769531 158.214844 886.3125 158.203125 C 885.65625 158.203125 885.125 158.738281 885.125 159.390625 C 885.125 160.046875 885.65625 160.578125 886.3125 160.578125 " fill-opacity="1" fill-rule="nonzero"/><path fill="#1d1e32" d="M 864.453125 248.972656 C 864.453125 248.972656 864.453125 248.980469 864.453125 248.980469 C 864.453125 253.570312 864.148438 258.230469 863.617188 262.75 C 863.714844 262.65625 863.808594 262.558594 863.90625 262.464844 C 864.097656 262.296875 864.289062 262.144531 864.484375 261.984375 C 865.054688 261.480469 865.636719 260.988281 866.238281 260.523438 C 866.609375 256.703125 866.820312 252.820312 866.820312 248.972656 C 866.820312 247.910156 866.765625 246.863281 866.734375 245.816406 C 866.550781 239.453125 865.835938 233.292969 864.382812 227.910156 C 862.914062 222.457031 859.511719 213.996094 854.769531 206.535156 C 854.480469 206.085938 854.175781 205.65625 853.882812 205.21875 C 851.726562 201.996094 849.328125 199.003906 846.691406 196.617188 C 843.691406 193.910156 840.375 191.941406 836.777344 191.363281 C 836.136719 191.261719 835.53125 191.699219 835.421875 192.347656 C 835.320312 192.992188 835.757812 193.601562 836.410156 193.703125 C 839.375 194.171875 842.320312 195.855469 845.105469 198.375 C 846.660156 199.773438 848.152344 201.425781 849.570312 203.242188 C 855.757812 211.179688 860.410156 222.195312 862.101562 228.53125 C 863.71875 234.519531 864.453125 241.648438 864.453125 248.972656 " fill-opacity="1" fill-rule="nonzero"/><path fill="#1d1e32" d="M 1011.136719 190.699219 C 1011.136719 198.394531 1011.386719 206.007812 1011.386719 213.796875 L 1011.386719 213.871094 C 1011.386719 215.96875 1011.410156 218.089844 1011.410156 220.210938 C 1011.410156 227.429688 1011.089844 234.640625 1008.46875 241.082031 C 1007.992188 242.257812 1007.519531 243.335938 1007.070312 244.386719 C 1007.910156 244.429688 1008.746094 244.480469 1009.582031 244.527344 C 1009.933594 243.71875 1010.289062 242.878906 1010.65625 241.976562 C 1013.484375 235.015625 1013.769531 227.492188 1013.78125 220.210938 C 1013.78125 218.074219 1013.75 215.949219 1013.75 213.871094 L 1013.75 213.796875 C 1013.75 205.960938 1013.507812 198.347656 1013.507812 190.699219 C 1013.507812 187.578125 1013.566406 184.445312 1013.679688 181.296875 C 1013.707031 180.585938 1013.71875 179.882812 1013.75 179.171875 C 1013.78125 178.519531 1013.273438 177.96875 1012.621094 177.9375 C 1011.964844 177.902344 1011.414062 178.40625 1011.390625 179.0625 C 1011.378906 179.125 1011.378906 179.1875 1011.378906 179.25 C 1011.199219 183.101562 1011.136719 186.914062 1011.136719 190.699219 " fill-opacity="1" fill-rule="nonzero"/><path fill="#f78e8c" d="M 697.914062 760.839844 L 730.089844 765.359375 L 731.042969 761.960938 C 719.683594 759.867188 708.648438 755.753906 699.308594 751.433594 L 697.914062 760.839844 " fill-opacity="1" fill-rule="nonzero"/><path fill="#f78e8c" d="M 562.019531 760.839844 L 594.195312 765.359375 L 595.148438 761.953125 C 583.789062 759.867188 572.75 755.753906 563.410156 751.433594 L 562.019531 760.839844 " fill-opacity="1" fill-rule="nonzero"/><path fill="#f78e8c" d="M 878.285156 71.101562 C 878.589844 70.519531 879.300781 70.304688 879.878906 70.609375 C 880.457031 70.914062 880.679688 71.628906 880.375 72.207031 C 880.210938 72.496094 880.097656 72.859375 879.992188 73.261719 C 879.820312 73.914062 879.714844 74.679688 879.71875 75.539062 C 879.71875 76.003906 879.757812 76.496094 879.820312 76.996094 C 880.207031 76.609375 880.65625 76.273438 881.117188 75.980469 C 881.335938 75.835938 881.566406 75.695312 881.796875 75.570312 C 883.117188 74.871094 884.542969 74.433594 885.757812 74.195312 C 886.398438 74.066406 887.015625 74.484375 887.144531 75.128906 C 887.265625 75.769531 886.847656 76.390625 886.210938 76.519531 C 885.195312 76.71875 883.953125 77.101562 882.910156 77.660156 C 882.589844 77.828125 882.300781 78.015625 882.042969 78.210938 C 881.425781 78.652344 880.96875 79.152344 880.761719 79.648438 C 880.6875 79.800781 880.589844 79.929688 880.476562 80.039062 C 880.765625 80.941406 881.105469 81.835938 881.546875 82.660156 C 882.558594 84.53125 883.941406 85.992188 885.589844 86.792969 C 885.910156 86.949219 886.226562 87.121094 886.570312 87.21875 C 887.191406 87.402344 887.550781 88.054688 887.375 88.6875 C 887.191406 89.308594 886.53125 89.671875 885.90625 89.492188 C 882.988281 88.632812 880.867188 86.378906 879.464844 83.789062 C 878.066406 81.179688 877.359375 78.1875 877.351562 75.539062 C 877.359375 73.886719 877.617188 72.359375 878.285156 71.101562 Z M 932.851562 121.324219 C 922.644531 125.027344 905.097656 126.375 902.140625 121.535156 C 901.933594 121.183594 901.589844 120.59375 901.191406 119.894531 C 898.234375 114.65625 890.875 100.773438 888.269531 93.660156 C 889.265625 93.007812 890.269531 92.125 891.261719 90.917969 C 896.007812 85.15625 896.039062 76.628906 892.621094 71.023438 C 892.089844 70.148438 891.304688 69.285156 890.351562 68.492188 C 887.835938 65.34375 884.386719 63.425781 880.179688 64.566406 C 879.640625 64.710938 879.144531 64.9375 878.683594 65.226562 C 877.246094 65.570312 875.894531 66.230469 874.738281 67.351562 C 870.667969 71.28125 870.671875 77.460938 872.046875 82.511719 C 871.625 84.4375 871.191406 84.761719 870.292969 81.824219 C 866.097656 68.160156 856.597656 63.980469 847.457031 62.0625 C 847.472656 62.65625 847.480469 63.253906 847.515625 63.847656 C 847.597656 65.347656 847.621094 70.136719 847.84375 71.65625 L 851.113281 79.167969 C 851.777344 84.054688 843.746094 101.742188 843.746094 101.742188 C 844.15625 105.484375 854.757812 103.117188 855.753906 106.777344 C 859.054688 118.945312 861.316406 139.597656 875.96875 135.210938 C 879.609375 134.117188 882.835938 133.066406 885.71875 132.046875 L 888.371094 149.929688 C 894.332031 146.054688 903.578125 146.238281 910.265625 144.878906 C 917.578125 143.386719 931.871094 140.433594 938.953125 140.382812 L 932.851562 121.324219 " fill-opacity="1" fill-rule="nonzero"/><path fill="#f78e8c" d="M 651.128906 222.824219 C 650.464844 221.777344 649.914062 221.113281 649.40625 220.691406 L 629.4375 193.0625 C 629.4375 193.0625 618.179688 195.882812 638.589844 221.992188 L 633.574219 223.578125 C 627.859375 231.09375 625.128906 233.300781 623.835938 235.808594 C 623.425781 236.609375 623.152344 237.449219 622.988281 238.503906 C 622.730469 240.140625 622.707031 242.292969 622.742188 245.671875 C 622.753906 246.496094 622.765625 247.386719 622.777344 248.367188 C 622.777344 248.398438 622.777344 248.417969 622.777344 248.449219 C 622.804688 250.539062 624.027344 252.5625 626.003906 254.496094 C 626.953125 255.417969 628.070312 256.320312 629.320312 257.195312 C 638.566406 263.648438 654.8125 268.582031 659.359375 270.113281 C 660.769531 262.832031 663.742188 256.300781 668.828125 251.296875 L 670.074219 252.175781 C 667.667969 245.265625 664.230469 238.550781 662.792969 235.9375 C 660.59375 231.96875 654.710938 228.476562 651.128906 222.824219 " fill-opacity="1" fill-rule="nonzero"/><path fill="#d1ae66" d="M 1033.8125 226.25 C 1031.523438 217.265625 1026.703125 201.882812 1019.320312 191.0625 C 1017.890625 187.15625 1016.03125 183.789062 1013.683594 181.300781 C 1013.566406 184.445312 1013.507812 187.578125 1013.507812 190.699219 C 1013.507812 198.347656 1013.75 205.960938 1013.75 213.796875 L 1013.75 213.871094 C 1013.75 215.953125 1013.785156 218.074219 1013.785156 220.210938 C 1013.773438 227.492188 1013.480469 235.015625 1010.660156 241.976562 C 1010.289062 242.878906 1009.933594 243.71875 1009.585938 244.527344 C 1013.226562 244.734375 1016.875 244.957031 1020.519531 245.195312 C 1022.496094 245.324219 1024.480469 245.441406 1026.460938 245.582031 C 1029.605469 245.800781 1032.890625 246.03125 1036.25 246.351562 C 1035.984375 239.515625 1035.457031 232.71875 1033.8125 226.25 " fill-opacity="1" fill-rule="nonzero"/><path fill="#d1ae66" d="M 857.292969 343.792969 C 856.136719 347.382812 854.949219 350.953125 853.820312 354.527344 C 851.199219 362.824219 849.890625 371.625 846.898438 380.121094 C 844.097656 388.046875 838.234375 397.011719 832.074219 402.722656 C 832.019531 402.769531 831.96875 402.804688 831.914062 402.851562 C 832.011719 409.613281 829.105469 416.945312 826.410156 422.867188 C 823.996094 428.15625 820.976562 433.203125 817.367188 437.757812 C 815.117188 440.59375 800.597656 446.296875 798.792969 449.535156 C 799.417969 449.53125 799.941406 449.996094 799.980469 450.628906 C 800.007812 450.996094 799.851562 451.320312 799.605469 451.558594 C 810.328125 462.253906 844.5 464.78125 853.105469 465.175781 C 861.503906 465.5625 867.621094 468.96875 872.824219 473.765625 C 875.648438 448.007812 873.285156 419.304688 868.882812 394.15625 C 865.8125 376.597656 862.410156 360.433594 857.292969 343.792969 " fill-opacity="1" fill-rule="nonzero"/><path fill="#d1ae66" d="M 886.3125 158.203125 C 906.769531 158.214844 927.6875 157.632812 944.960938 148.863281 C 945.539062 148.574219 946.253906 148.800781 946.550781 149.386719 C 946.84375 149.96875 946.613281 150.679688 946.027344 150.976562 C 928.085938 160.0625 906.804688 160.566406 886.3125 160.578125 C 885.65625 160.578125 885.125 160.046875 885.125 159.390625 C 885.125 158.738281 885.65625 158.203125 886.3125 158.203125 Z M 1011.386719 213.871094 L 1011.386719 213.796875 C 1011.386719 206.007812 1011.136719 198.394531 1011.136719 190.699219 C 1011.136719 186.914062 1011.199219 183.101562 1011.378906 179.25 C 1010.933594 178.925781 1010.480469 178.632812 1010.003906 178.367188 L 938.960938 140.382812 C 938.957031 140.382812 938.957031 140.382812 938.957031 140.382812 C 931.871094 140.429688 917.582031 143.386719 910.265625 144.875 C 903.582031 146.238281 894.335938 146.054688 888.371094 149.929688 C 888.070312 150.125 887.734375 150.285156 887.445312 150.503906 C 881.871094 154.792969 874.738281 160.484375 865.636719 168.179688 C 860.277344 172.714844 843.199219 185.128906 832.496094 192.648438 C 829.632812 194.65625 827.199219 196.34375 825.601562 197.40625 C 824.074219 198.523438 822.582031 199.925781 821.125 201.472656 C 817.96875 204.824219 814.992188 209.082031 812.273438 213.875 C 804.242188 228.027344 798.449219 246.679688 796.980469 259.542969 C 796.164062 266.695312 795.109375 274.40625 793.960938 282.449219 C 793.5625 285.238281 793.160156 288.066406 792.746094 290.933594 C 792.066406 295.621094 791.378906 300.390625 790.699219 305.226562 C 790.109375 309.441406 789.527344 313.699219 788.972656 317.972656 C 790.246094 317.964844 791.492188 317.953125 792.761719 317.953125 C 798.855469 317.953125 804.945312 318.101562 810.75 318.828125 C 811.402344 318.90625 811.859375 319.496094 811.78125 320.148438 C 811.699219 320.796875 811.105469 321.257812 810.457031 321.171875 C 809.089844 321.003906 807.699219 320.871094 806.289062 320.753906 C 801.898438 320.410156 797.347656 320.320312 792.761719 320.320312 C 788.449219 320.320312 784.105469 320.394531 779.832031 320.394531 C 779.171875 320.394531 778.648438 319.863281 778.648438 319.210938 C 778.648438 318.96875 778.738281 318.753906 778.863281 318.566406 C 765.914062 316.414062 753.285156 311.378906 741.8125 305.226562 C 733.558594 300.796875 725.914062 295.816406 719.1875 290.933594 C 715.171875 288.019531 711.480469 285.144531 708.195312 282.449219 C 705.503906 280.242188 703.082031 278.167969 700.957031 276.285156 C 698.957031 274.511719 697.21875 272.914062 695.785156 271.5625 C 692.683594 268.636719 690.953125 266.820312 690.953125 266.820312 L 670.074219 252.175781 L 668.828125 251.296875 C 663.742188 256.300781 660.769531 262.832031 659.359375 270.113281 C 658.597656 274.039062 658.300781 278.191406 658.371094 282.449219 C 658.417969 285.242188 658.621094 288.082031 658.964844 290.933594 C 659.546875 295.71875 660.503906 300.53125 661.75 305.226562 C 662.015625 306.226562 662.285156 307.230469 662.574219 308.222656 C 667.109375 323.65625 670.363281 331.984375 682.21875 342.296875 C 682.78125 342.785156 683.339844 343.269531 683.945312 343.769531 C 687.5 346.71875 691.144531 349.589844 694.855469 352.417969 C 695.242188 351.914062 695.953125 351.792969 696.472656 352.171875 C 705.214844 358.390625 714.125 364.171875 721.433594 368.839844 C 728.75 373.519531 734.417969 377.058594 736.847656 378.949219 C 739.082031 380.695312 743.039062 383.03125 747.070312 385.191406 C 751.105469 387.351562 755.242188 389.359375 757.890625 390.53125 C 765.8125 394.035156 774.148438 398.988281 782.636719 403.035156 C 788.203125 405.695312 793.820312 407.9375 799.402344 409.179688 C 800.015625 409.253906 800.621094 409.292969 801.234375 409.328125 C 801.765625 409.511719 802.316406 409.671875 802.882812 409.804688 C 804.644531 410.058594 806.40625 410.226562 808.152344 410.21875 C 815.722656 410.207031 823.144531 407.738281 830.464844 400.984375 C 830.902344 400.582031 831.335938 400.125 831.769531 399.6875 C 837.125 394.269531 842.242188 386.257812 844.667969 379.332031 C 847.5625 371.128906 848.871094 362.359375 851.5625 353.816406 C 853.039062 349.132812 854.59375 344.496094 856.042969 339.847656 C 855.902344 339.402344 855.777344 338.96875 855.632812 338.523438 C 849.347656 319.382812 845.832031 299.914062 852.375 280.585938 C 852.78125 279.371094 853.234375 278.210938 853.707031 277.09375 C 853.863281 276.726562 854.035156 276.378906 854.191406 276.023438 C 854.527344 275.285156 854.867188 274.558594 855.230469 273.855469 C 855.433594 273.464844 855.648438 273.082031 855.863281 272.699219 C 856.210938 272.070312 856.566406 271.453125 856.941406 270.851562 C 857.175781 270.480469 857.410156 270.113281 857.652344 269.753906 C 858.039062 269.171875 858.445312 268.609375 858.855469 268.058594 C 859.097656 267.730469 859.34375 267.394531 859.59375 267.082031 C 860.0625 266.492188 860.550781 265.929688 861.042969 265.375 C 861.257812 265.132812 861.46875 264.882812 861.683594 264.648438 C 862.304688 263.988281 862.953125 263.355469 863.617188 262.75 C 864.148438 258.230469 864.453125 253.570312 864.453125 248.980469 C 864.453125 248.980469 864.453125 248.972656 864.453125 248.972656 C 864.453125 241.648438 863.71875 234.519531 862.101562 228.53125 C 860.410156 222.195312 855.757812 211.179688 849.570312 203.242188 C 848.152344 201.425781 846.660156 199.773438 845.105469 198.375 C 842.320312 195.855469 839.375 194.171875 836.410156 193.703125 C 835.757812 193.601562 835.320312 192.992188 835.421875 192.347656 C 835.53125 191.699219 836.136719 191.261719 836.777344 191.363281 C 840.375 191.941406 843.691406 193.910156 846.691406 196.617188 C 849.328125 199.003906 851.726562 201.996094 853.882812 205.21875 C 854.175781 205.65625 854.480469 206.085938 854.769531 206.535156 C 859.511719 213.996094 862.914062 222.457031 864.382812 227.910156 C 865.835938 233.292969 866.550781 239.453125 866.734375 245.816406 C 866.765625 246.863281 866.820312 247.910156 866.820312 248.972656 C 866.820312 252.820312 866.609375 256.703125 866.238281 260.523438 C 866.257812 260.5 866.289062 260.484375 866.3125 260.464844 C 866.632812 260.21875 866.960938 259.988281 867.28125 259.753906 C 867.804688 259.375 868.320312 259 868.859375 258.648438 C 869.222656 258.402344 869.597656 258.167969 869.972656 257.9375 C 870.488281 257.609375 871.019531 257.296875 871.550781 256.992188 C 871.945312 256.773438 872.335938 256.550781 872.738281 256.335938 C 873.285156 256.046875 873.84375 255.765625 874.40625 255.492188 C 874.804688 255.296875 875.207031 255.09375 875.609375 254.910156 C 876.238281 254.625 876.886719 254.347656 877.53125 254.082031 C 877.882812 253.933594 878.226562 253.773438 878.589844 253.632812 C 879.554688 253.25 880.535156 252.894531 881.535156 252.550781 C 882.003906 252.390625 882.472656 252.246094 882.9375 252.101562 C 883.53125 251.90625 884.117188 251.71875 884.714844 251.539062 C 885.246094 251.382812 885.792969 251.230469 886.335938 251.082031 C 886.675781 250.988281 887.007812 250.886719 887.347656 250.796875 C 887.351562 250.796875 887.359375 250.800781 887.359375 250.804688 C 890.203125 250.050781 893.136719 249.390625 896.167969 248.820312 C 911.941406 245.867188 928.097656 244.289062 944.117188 243.613281 C 965.113281 242.722656 986.101562 243.25 1007.070312 244.386719 C 1007.519531 243.335938 1007.992188 242.257812 1008.46875 241.082031 C 1011.089844 234.640625 1011.410156 227.429688 1011.410156 220.210938 C 1011.410156 218.089844 1011.386719 215.96875 1011.386719 213.871094 " fill-opacity="1" fill-rule="nonzero"/><path fill="#1d1e32" d="M 735.390625 380.816406 C 737.859375 382.738281 741.859375 385.078125 745.953125 387.273438 C 747.929688 388.332031 749.90625 389.339844 751.738281 390.246094 C 753.714844 391.21875 755.519531 392.070312 756.9375 392.695312 C 764.671875 396.117188 773.003906 401.0625 781.617188 405.171875 C 790.238281 409.28125 799.15625 412.582031 808.152344 412.585938 C 816.199219 412.601562 824.277344 409.875 831.914062 402.851562 C 831.96875 402.804688 832.019531 402.769531 832.074219 402.722656 C 838.234375 397.011719 844.097656 388.046875 846.898438 380.121094 C 849.890625 371.625 851.199219 362.824219 853.820312 354.527344 C 854.949219 350.953125 856.136719 347.382812 857.292969 343.792969 C 856.882812 342.480469 856.472656 341.167969 856.042969 339.847656 C 854.59375 344.496094 853.039062 349.132812 851.5625 353.816406 C 848.871094 362.359375 847.5625 371.128906 844.667969 379.332031 C 842.242188 386.257812 837.125 394.269531 831.769531 399.6875 C 831.335938 400.125 830.902344 400.582031 830.464844 400.984375 C 823.144531 407.738281 815.722656 410.207031 808.152344 410.21875 C 806.40625 410.226562 804.644531 410.058594 802.882812 409.804688 C 801.726562 409.644531 800.558594 409.433594 799.402344 409.179688 C 793.820312 407.9375 788.203125 405.695312 782.636719 403.035156 C 774.148438 398.988281 765.8125 394.035156 757.890625 390.53125 C 755.242188 389.359375 751.105469 387.351562 747.070312 385.191406 C 743.039062 383.03125 739.082031 380.695312 736.847656 378.949219 C 734.417969 377.058594 728.75 373.519531 721.433594 368.839844 C 714.125 364.171875 705.214844 358.390625 696.472656 352.171875 C 695.953125 351.792969 695.242188 351.914062 694.855469 352.417969 C 694.84375 352.425781 694.828125 352.433594 694.820312 352.441406 C 694.441406 352.976562 694.566406 353.714844 695.097656 354.097656 C 697.269531 355.640625 699.449219 357.160156 701.613281 358.636719 C 705.246094 361.125 708.820312 363.496094 712.230469 365.71875 C 712.832031 366.113281 713.433594 366.503906 714.027344 366.886719 C 716.15625 368.269531 718.21875 369.59375 720.15625 370.832031 C 727.464844 375.503906 733.191406 379.101562 735.390625 380.816406 " fill-opacity="1" fill-rule="nonzero"/><path fill="#1d1e32" d="M 811.78125 320.148438 C 811.859375 319.496094 811.402344 318.90625 810.75 318.828125 C 804.945312 318.101562 798.855469 317.953125 792.761719 317.953125 C 791.492188 317.953125 790.246094 317.964844 788.972656 317.972656 C 785.910156 317.996094 782.835938 318.027344 779.832031 318.027344 C 779.417969 318.027344 779.074219 318.253906 778.863281 318.566406 C 778.738281 318.753906 778.648438 318.96875 778.648438 319.210938 C 778.648438 319.863281 779.171875 320.394531 779.832031 320.394531 C 784.105469 320.394531 788.449219 320.320312 792.761719 320.320312 C 797.347656 320.320312 801.898438 320.410156 806.289062 320.753906 C 807.699219 320.871094 809.089844 321.003906 810.457031 321.171875 C 811.105469 321.257812 811.699219 320.796875 811.78125 320.148438 " fill-opacity="1" fill-rule="nonzero"/><path fill="#58356a" d="M 1076.242188 263.359375 C 1067.210938 251.101562 1051.128906 247.796875 1036.253906 246.351562 C 1032.894531 246.027344 1029.605469 245.792969 1026.460938 245.582031 C 1024.484375 245.441406 1022.5 245.324219 1020.523438 245.195312 C 1016.878906 244.957031 1013.226562 244.734375 1009.585938 244.53125 C 1008.75 244.480469 1007.910156 244.429688 1007.074219 244.386719 C 986.105469 243.25 965.117188 242.722656 944.117188 243.609375 C 928.101562 244.289062 911.941406 245.867188 896.167969 248.824219 C 893.140625 249.390625 890.207031 250.050781 887.359375 250.804688 C 902.429688 260.773438 907.269531 281.578125 909.816406 298.316406 C 914.78125 330.851562 913.25 364.046875 913.683594 396.84375 C 913.683594 396.84375 912.898438 495.804688 895.089844 549.21875 L 731.191406 549.21875 C 727.769531 549.21875 724.585938 550.199219 721.863281 551.871094 C 716.753906 555.011719 713.332031 560.640625 713.332031 567.078125 L 713.332031 584.773438 C 713.332031 589.488281 715.171875 593.761719 718.152344 596.949219 C 721.414062 600.441406 726.039062 602.632812 731.191406 602.632812 L 1041.21875 602.632812 C 1051.082031 602.632812 1059.078125 594.636719 1059.078125 584.773438 C 1063.242188 564.597656 1061.972656 528.132812 1063.136719 508.710938 C 1063.628906 500.433594 1064.222656 492.167969 1064.855469 483.898438 C 1065.402344 476.828125 1065.992188 469.753906 1066.621094 462.683594 C 1068.773438 438.515625 1071.335938 414.378906 1073.878906 390.246094 C 1074.703125 382.464844 1075.511719 374.675781 1076.320312 366.886719 C 1077.542969 354.960938 1078.746094 343.035156 1079.84375 331.101562 C 1081.8125 309.625 1090.367188 282.515625 1076.242188 263.359375 " fill-opacity="1" fill-rule="nonzero"/><path fill="#694182" d="M 909.816406 298.320312 C 907.265625 281.578125 902.429688 260.773438 887.359375 250.804688 C 887.359375 250.800781 887.351562 250.796875 887.347656 250.796875 C 887.007812 250.886719 886.675781 250.988281 886.335938 251.082031 C 885.792969 251.230469 885.246094 251.382812 884.714844 251.539062 C 884.117188 251.71875 883.53125 251.90625 882.9375 252.101562 C 882.472656 252.246094 882.003906 252.390625 881.535156 252.550781 C 880.535156 252.894531 879.554688 253.25 878.589844 253.632812 C 878.226562 253.773438 877.882812 253.933594 877.53125 254.082031 C 876.886719 254.347656 876.238281 254.625 875.609375 254.910156 C 875.207031 255.09375 874.804688 255.296875 874.40625 255.492188 C 873.84375 255.765625 873.285156 256.046875 872.738281 256.335938 C 872.335938 256.550781 871.945312 256.773438 871.550781 256.992188 C 871.019531 257.296875 870.488281 257.609375 869.972656 257.9375 C 869.597656 258.167969 869.222656 258.402344 868.859375 258.648438 C 868.320312 259 867.804688 259.375 867.28125 259.753906 C 866.960938 259.988281 866.632812 260.21875 866.3125 260.464844 C 866.289062 260.484375 866.257812 260.5 866.238281 260.523438 C 865.636719 260.988281 865.054688 261.480469 864.484375 261.984375 C 864.289062 262.144531 864.09375 262.296875 863.90625 262.464844 C 863.808594 262.558594 863.714844 262.65625 863.617188 262.75 C 862.953125 263.355469 862.304688 263.988281 861.683594 264.648438 C 861.46875 264.882812 861.257812 265.132812 861.042969 265.375 C 860.550781 265.929688 860.0625 266.492188 859.59375 267.082031 C 859.34375 267.394531 859.097656 267.730469 858.855469 268.058594 C 858.445312 268.609375 858.039062 269.171875 857.652344 269.753906 C 857.410156 270.113281 857.175781 270.480469 856.941406 270.851562 C 856.566406 271.453125 856.210938 272.070312 855.863281 272.699219 C 855.648438 273.082031 855.433594 273.464844 855.230469 273.855469 C 854.867188 274.558594 854.527344 275.285156 854.191406 276.023438 C 854.035156 276.378906 853.863281 276.726562 853.707031 277.09375 C 853.234375 278.210938 852.78125 279.371094 852.375 280.585938 C 845.832031 299.914062 849.347656 319.382812 855.632812 338.523438 C 855.777344 338.96875 855.902344 339.402344 856.042969 339.847656 C 856.472656 341.167969 856.882812 342.480469 857.292969 343.792969 C 862.410156 360.433594 865.8125 376.597656 868.882812 394.15625 C 873.285156 419.304688 875.648438 448.007812 872.824219 473.765625 C 872.703125 474.84375 872.636719 475.949219 872.496094 477.011719 C 869.726562 498.605469 866.960938 531.441406 853.734375 549.222656 L 895.089844 549.222656 C 912.898438 495.804688 913.683594 396.84375 913.683594 396.84375 C 913.25 364.050781 914.777344 330.855469 909.816406 298.320312 " fill-opacity="1" fill-rule="nonzero"/><path fill="#7695c0" d="M 885.6875 770.628906 L 896.203125 770.628906 L 896.203125 602.632812 L 884.675781 602.632812 L 884.675781 770.628906 L 885.6875 770.628906 " fill-opacity="1" fill-rule="nonzero"/><path fill="#6880b6" d="M 884.675781 770.628906 L 884.675781 602.632812 L 873.148438 602.632812 L 873.148438 770.628906 L 884.675781 770.628906 " fill-opacity="1" fill-rule="nonzero"/><path fill="#7695c0" d="M 896.488281 770.628906 L 896.203125 770.628906 L 996.378906 801.90625 L 981.984375 797.398438 L 960.183594 790.570312 L 896.488281 770.628906 " fill-opacity="1" fill-rule="nonzero"/><path fill="#7695c0" d="M 882.808594 782.839844 L 896.203125 770.628906 L 884.675781 770.628906 L 838.53125 810.011719 L 1008.253906 810.011719 C 1007.363281 803.207031 996.378906 801.90625 996.378906 801.90625 L 882.808594 782.839844 " fill-opacity="1" fill-rule="nonzero"/><path fill="#6880b6" d="M 883.671875 770.628906 L 872.871094 770.628906 L 772.972656 801.90625 C 772.972656 801.90625 761.996094 803.207031 761.109375 810.011719 L 838.53125 810.011719 L 884.675781 770.628906 L 883.671875 770.628906 " fill-opacity="1" fill-rule="nonzero"/><path fill="#93b0e1" d="M 896.203125 770.628906 L 882.808594 782.839844 L 996.378906 801.90625 Z M 896.203125 770.628906 " fill-opacity="1" fill-rule="nonzero"/><path fill="#1d1e32" d="M 799.980469 450.628906 C 799.941406 449.996094 799.417969 449.53125 798.792969 449.535156 C 798.765625 449.535156 798.753906 449.527344 798.726562 449.527344 C 769.398438 451.492188 739.625 454.300781 714.648438 455.222656 C 696.46875 455.902344 677.125 454.351562 659.109375 459.941406 C 641.738281 465.328125 631.71875 477.902344 624.867188 492.539062 C 618.003906 507.191406 614.164062 524.003906 609.058594 538.300781 C 601.203125 560.347656 592.671875 582.242188 584.457031 604.195312 C 578.757812 619.429688 566.417969 650.09375 556.171875 681.21875 C 555.96875 681.824219 556.296875 682.476562 556.890625 682.695312 C 556.90625 682.699219 556.914062 682.710938 556.925781 682.710938 C 557.546875 682.914062 558.214844 682.578125 558.417969 681.957031 C 568.636719 650.921875 580.957031 620.308594 586.675781 605.023438 C 594.882812 583.09375 603.414062 561.183594 611.292969 539.097656 C 616.449219 524.609375 620.285156 507.878906 627.011719 493.550781 C 633.753906 479.203125 643.246094 467.355469 659.8125 462.195312 C 665.207031 460.519531 670.765625 459.5 676.414062 458.875 C 680.96875 458.375 685.585938 458.128906 690.222656 457.992188 C 698.398438 457.753906 706.644531 457.882812 714.738281 457.585938 C 739.8125 456.660156 769.597656 453.847656 798.882812 451.890625 C 799.164062 451.871094 799.410156 451.742188 799.605469 451.558594 C 799.851562 451.320312 800.007812 450.996094 799.980469 450.628906 " fill-opacity="1" fill-rule="nonzero"/><path fill="#1d1e32" d="M 677.308594 727.613281 C 685.386719 704.355469 692.5 679.382812 699.035156 660.15625 C 702.382812 650.3125 706.101562 635.679688 709.730469 626.058594 C 712.605469 618.429688 713.699219 614.226562 717.417969 603.007812 C 717.621094 602.390625 717.292969 601.730469 716.683594 601.519531 C 716.675781 601.519531 716.675781 601.511719 716.664062 601.511719 C 716.046875 601.300781 715.375 601.640625 715.171875 602.265625 C 711.4375 613.535156 710.347656 617.699219 707.519531 625.226562 C 703.816406 635.054688 700.097656 649.691406 696.796875 659.398438 C 690.226562 678.703125 683.121094 703.664062 675.070312 726.832031 C 674.855469 727.453125 675.183594 728.125 675.800781 728.339844 C 675.808594 728.34375 675.820312 728.34375 675.828125 728.34375 C 676.4375 728.539062 677.09375 728.21875 677.308594 727.613281 " fill-opacity="1" fill-rule="nonzero"/></svg>